<svg xmlns="http://www.w3.org/2000/svg" xmlns:xlink="http://www.w3.org/1999/xlink" version="1.1" x="0px" y="0px" viewBox="0 0 100 100" enable-background="new 0 0 100 100" xml:space="preserve">
  <g  stroke="#2174d5"
   stroke-width="2"
   fill="none"><path d="M80.439,39.009H49.825c-1.933,0-3.5-1.567-3.5-3.5s1.567-3.5,3.5-3.5h30.614c1.933,0,3.5,1.567,3.5,3.5   S82.372,39.009,80.439,39.009z"/><path  d="M80.439,57.252H49.825c-1.933,0-3.5-1.567-3.5-3.5s1.567-3.5,3.5-3.5h30.614c1.933,0,3.5,1.567,3.5,3.5   S82.372,57.252,80.439,57.252z"/><path d="M80.439,75.495H49.825c-1.933,0-3.5-1.567-3.5-3.5s1.567-3.5,3.5-3.5h30.614c1.933,0,3.5,1.567,3.5,3.5   S82.372,75.495,80.439,75.495z"/><path d="M34.953,57.252H21.668c-1.933,0-3.5-1.567-3.5-3.5s1.567-3.5,3.5-3.5h13.284c1.933,0,3.5,1.567,3.5,3.5   S36.886,57.252,34.953,57.252z"/><path d="M34.953,75.495H21.668c-1.933,0-3.5-1.567-3.5-3.5s1.567-3.5,3.5-3.5h13.284c1.933,0,3.5,1.567,3.5,3.5   S36.886,75.495,34.953,75.495z"/><path
    d="M25.932,43.796L25.932,43.796c-0.929,0-1.819-0.369-2.475-1.025l-5.35-5.351c-1.367-1.367-1.367-3.583,0-4.95   c1.368-1.366,3.583-1.366,4.95,0l2.875,2.875l7.433-7.433c1.367-1.366,3.583-1.366,4.95,0c1.367,1.367,1.367,3.583,0,4.95   l-9.908,9.908C27.75,43.428,26.86,43.796,25.932,43.796z"/></g>
</svg>
