<svg
  xmlns:x="http://ns.adobe.com/Extensibility/1.0/"
  xmlns:i="http://ns.adobe.com/AdobeIllustrator/10.0/"
  xmlns:graph="http://ns.adobe.com/Graphs/1.0/"
  xmlns="http://www.w3.org/2000/svg"
  xmlns:xlink="http://www.w3.org/1999/xlink"
  version="1.1"
  x="0px"
  y="0px"
  viewBox="0 0 64 64"
  enable-background="new 0 0 64 64"
  xml:space="preserve">
  <g>
    <g><path
      stroke="#2174d5"
      stroke-width="1"
      fill="none"
      d="M47,32c0-4.895-2.367-9.236-6.005-11.975C40.995,20.016,41,20.009,41,20V6c0-0.552-0.447-1-1-1H24c-0.552,0-1,0.448-1,1    v14c0,0.009,0.005,0.016,0.005,0.025C19.367,22.765,17,27.105,17,32s2.367,9.235,6.005,11.976C23.005,43.984,23,43.991,23,44v14    c0,0.553,0.448,1,1,1h16c0.553,0,1-0.447,1-1V44c0-0.009-0.005-0.016-0.005-0.024C44.633,41.236,47,36.895,47,32z M25,7h14v11.744    C36.908,17.635,34.528,17,32,17c-2.528,0-4.908,0.635-7,1.744V7z M39,57H25V45.257C27.092,46.365,29.472,47,32,47    c2.528,0,4.908-0.635,7-1.743V57z M32,45c-7.168,0-13-5.832-13-13c0-7.168,5.832-13,13-13c7.168,0,13,5.832,13,13    C45,39.168,39.168,45,32,45z"/><path d="M32,21c-0.552,0-1,0.448-1,1v9.586l-3.707,3.707c-0.391,0.391-0.391,1.023,0,1.414C27.488,36.902,27.744,37,28,37    s0.512-0.098,0.707-0.293l4-4C32.895,32.52,33,32.265,33,32V22C33,21.448,32.552,21,32,21z"/></g>
  </g>
</svg>
